<svg xmlns="http://www.w3.org/2000/svg" width="1400" height="900" viewBox="0 0 1400 900" role="img">

  <defs>
    <linearGradient id="hero" x1="0" y1="0" x2="1" y2="0">
      <stop offset="0%" stop-color="#111827"/>
      <stop offset="58%" stop-color="#1f2937"/>
      <stop offset="100%" stop-color="#0f766e"/>
    </linearGradient>
    <linearGradient id="bg" x1="0" y1="0" x2="1" y2="1">
      <stop offset="0%" stop-color="#f8fafc"/>
      <stop offset="100%" stop-color="#eef4f0"/>
    </linearGradient>
    <filter id="shadow" x="-20%" y="-20%" width="140%" height="140%">
      <feDropShadow dx="0" dy="8" stdDeviation="11" flood-color="#0f172a" flood-opacity="0.12"/>
    </filter>
    <marker id="arrow" markerWidth="12" markerHeight="12" refX="9" refY="6" orient="auto" markerUnits="strokeWidth">
      <path d="M2,2 L10,6 L2,10 Z" fill="#475569"/>
    </marker>
    <marker id="arrow-teal" markerWidth="12" markerHeight="12" refX="9" refY="6" orient="auto" markerUnits="strokeWidth">
      <path d="M2,2 L10,6 L2,10 Z" fill="#0f766e"/>
    </marker>
    <style>
      .page { fill: url(#bg); }
      .hero { fill: url(#hero); filter: url(#shadow); }
      .title { font: 800 40px "Apple SD Gothic Neo", "Noto Sans KR", Arial, sans-serif; fill: #ffffff; letter-spacing: 0; }
      .subtitle { font: 600 18px "Apple SD Gothic Neo", "Noto Sans KR", Arial, sans-serif; fill: #dbeafe; letter-spacing: 0; }
      .section { font: 800 20px "Apple SD Gothic Neo", "Noto Sans KR", Arial, sans-serif; fill: #0f172a; letter-spacing: 0; }
      .label { font: 800 17px "Apple SD Gothic Neo", "Noto Sans KR", Arial, sans-serif; fill: #0f172a; letter-spacing: 0; }
      .body { font: 500 14px "Apple SD Gothic Neo", "Noto Sans KR", Arial, sans-serif; fill: #475569; letter-spacing: 0; }
      .tiny { font: 700 12px "Apple SD Gothic Neo", "Noto Sans KR", Arial, sans-serif; fill: #64748b; letter-spacing: 0; }
      .white { fill: #ffffff; }
      .panel { fill: rgba(255,255,255,0.86); stroke: #cbd5e1; stroke-width: 1.2; rx: 8; filter: url(#shadow); }
      .node { fill: #ffffff; stroke: #cbd5e1; stroke-width: 1.5; rx: 8; }
      .teal { stroke: #0f766e; }
      .blue { stroke: #2563eb; }
      .orange { stroke: #b45309; }
      .violet { stroke: #4f46e5; }
      .slate { stroke: #64748b; }
      .chip { rx: 8; }
      .chipText { font: 800 13px "Apple SD Gothic Neo", "Noto Sans KR", Arial, sans-serif; fill: #ffffff; letter-spacing: 0; }
      .line { stroke: #475569; stroke-width: 2.4; fill: none; marker-end: url(#arrow); }
      .event { stroke: #0f766e; stroke-width: 3; fill: none; marker-end: url(#arrow-teal); }
      .dash { stroke: #94a3b8; stroke-width: 2; fill: none; stroke-dasharray: 7 8; marker-end: url(#arrow); }
    </style>
  </defs>
<rect class="page" x="0" y="0" width="1400" height="900"/>
<rect class="hero" x="48" y="36" width="1304" height="112" rx="8"/>
<text class="title" x="82" y="90">보안 경계</text>
<text class="subtitle" x="84" y="124">클라이언트가 보낸 식별자를 믿지 않고 Gateway에서 검증한 주체만 내부로 전달</text>

<rect class="panel" x="64" y="188" width="1272" height="620"/>
<rect class="node blue" x="96" y="300" width="210" height="112"/>
<text class="label" x="120" y="332">Web / Mobile</text>
<text class="body" x="120" y="356">Authorization Code + PKCE</text>
<text class="body" x="120" y="380">Bearer token 전달</text>
<rect class="node violet" x="366" y="300" width="210" height="112"/>
<text class="label" x="390" y="332">Keycloak</text>
<text class="body" x="390" y="356">issuer / jwks</text>
<text class="body" x="390" y="380">CUSTOMER / ADMIN</text>
<rect class="node violet" x="636" y="300" width="220" height="112"/>
<text class="label" x="660" y="332">Gateway</text>
<text class="body" x="660" y="356">JWT 검증</text>
<text class="body" x="660" y="380">role route</text>
<text class="body" x="660" y="404">spoof header 제거</text>
<rect class="node teal" x="916" y="300" width="190" height="112"/>
<text class="label" x="940" y="332">Customer API</text>
<text class="body" x="940" y="356">subject 기준</text>
<text class="body" x="940" y="380">주문 소유권 검사</text>
<rect class="node teal" x="1158" y="300" width="150" height="112"/>
<text class="label" x="1182" y="332">Admin API</text>
<text class="body" x="1182" y="356">ROLE_ADMIN</text>
<text class="body" x="1182" y="380">operator 전파</text>
<path class="line" d="M306 356 L366 356"/>
<path class="line" d="M576 356 L636 356"/>
<path class="line" d="M856 356 L916 356"/>
<path class="line" d="M856 386 C960 456, 1060 356, 1158 356"/>

<text class="section" x="96" y="510">Gateway가 재작성하는 내부 헤더</text>
<rect class="node slate" x="96" y="552" width="1180" height="118"/>
<text class="body" x="126" y="590">X-StockRush-Subject: JWT sub에서 생성</text>
<text class="body" x="126" y="618">X-StockRush-Roles: realm/client role을 애플리케이션 role로 정규화</text>
<text class="body" x="126" y="646">X-Operator-Id: 관리자 감사 row에 사용할 인증 주체 기반 operator</text>

<rect class="chip" x="96" y="730" width="152" height="34" fill="#0f766e"/>
<text class="chipText" x="118" y="753">검증 항목</text>
<text class="body" x="270" y="753">401, 403, 다른 고객 주문 조회 차단, client spoof header 덮어쓰기, 관리자 감사 주체 기록</text>

</svg>
